<?xml version="1.0" encoding="UTF-8"?>
<svg width="1200pt" height="1200pt" version="1.1" viewBox="0 0 1200 1200" xmlns="http://www.w3.org/2000/svg">
 <path d="m998.62 563 74.465-74.469c46.211-46.207 71.621-107.58 71.543-172.79 0-66.648-26.336-128.92-74.156-175.36-95.219-92.465-250.8-89.586-346.8 6.4023l-70.641 70.637c-20.438 20.441-31.695 47.617-31.695 76.523v300.76h300.76c28.902-0.003906 56.082-11.254 76.523-31.699z" fill="#218802"/>
 <path d="m481.77 142.95c-46.141-46.148-107.39-71.551-172.5-71.551h-0.28906c-66.648 0-128.93 26.34-175.36 74.16-92.469 95.223-89.602 250.8 6.4023 346.8l70.633 70.637c20.441 20.441 47.621 31.695 76.523 31.695h300.76v-300.76c0-28.906-11.258-56.082-31.695-76.523z" fill="#218802"/>
 <path d="m210.64 659.81-74.465 74.461c-46.211 46.219-71.621 107.59-71.547 172.79 0 66.648 26.336 128.92 74.156 175.36 46.445 45.102 107.23 67.523 168.47 67.523 64.324 0 129.14-24.75 178.32-73.926l70.641-70.637c20.438-20.441 31.695-47.605 31.695-76.512l0.003906-300.77h-300.76c-28.906 0-56.086 11.266-76.523 31.707z" fill="#218802"/>
 <path d="m998.62 659.81c-20.434-20.441-47.605-31.695-76.523-31.695l-300.76-0.011719v300.77c0 28.906 11.258 56.07 31.695 76.512l74.465 74.469c46.148 46.148 107.38 71.539 172.46 71.539h0.32812c66.656 0 128.93-26.328 175.36-74.148 92.469-95.223 89.602-250.8-6.4023-346.8z" fill="#218802"/>
</svg>
