<?xml version="1.0" encoding="UTF-8"?>
<svg width="1200pt" height="1200pt" version="1.1" viewBox="0 0 1200 1200" xmlns="http://www.w3.org/2000/svg">
 <path d="m798 485.58c3 0 6-0.09375 8.9531-0.14062 10.359-0.046875 18.938 0.32812 28.219 5.3906 1.6406 0.75 3.2812 1.5 4.875 2.25 5.4375 2.7188 10.828 5.8594 15.562 9.75v2.3438c0.70312 0.32812 1.4062 0.65625 2.0625 0.9375 9.9375 5.5312 15.188 16.688 19.5 26.719 0.46875 0.84375 0.84375 1.7812 1.2188 2.6719 6.0938 15.797 4.6875 36.047-1.3125 51.703-4.2188 9-10.125 16.734-16.688 24.094-2.9062 3.0938-2.9062 3.0938-2.3906 7.875 1.1719 0.46875 2.3906 0.84375 3.6094 1.2188 2.1562 2.8594 2.1562 2.8594 4.3125 6.375 1.125 1.7344 1.125 1.7344 2.25 3.5625 1.5938 2.8125 2.4375 4.9219 3 8.0625h2.4375c1.2188 3.6094 2.3906 7.2188 3.5625 10.781 0.70312 2.0156 0.70312 2.0156 1.4062 4.0781 3.2344 13.453 3.6562 28.266-0.1875 41.578-0.32812 1.125-0.65625 2.25-0.9375 3.4219-2.5781 8.25-5.7188 16.078-11.062 22.922h-2.3906c-0.32812 1.0312-0.60938 1.9688-0.98438 2.9531-0.46875 0.98438-0.9375 2.0156-1.4062 3.0469-1.1719 0.46875-2.3438 0.84375-3.6094 1.2188-0.375 0.79688-0.75 1.5469-1.125 2.3438-1.6406 3.0938-3 3.375-6.0469 4.875-0.75 0.70312-1.4531 1.4531-2.2031 2.25-2.7656 2.7188-5.3906 4.3125-8.7656 6.1406-1.0312 0.5625-2.1094 1.125-3.1875 1.7344-1.9219 0.89062-1.9219 0.89062-3.8438 1.875-0.84375 0.375-1.6406 0.84375-2.4375 1.2656-9.6562 4.5469-19.312 4.3594-29.766 4.2656h-2.8125c-20.062-0.14062-39.703-2.8125-56.203-15.141-1.1719-0.79688-2.2969-1.6406-3.4688-2.4375-3.2812-2.3906-6.5156-4.7344-9.75-7.1719-1.4062-0.9375-1.4062-0.9375-2.7656-1.9688-0.98438-0.79688-0.98438-0.79688-2.0156-1.5938v-2.4375c-0.65625-0.32812-1.3594-0.65625-2.1094-0.9375-2.9531-1.5938-5.2031-3.375-7.7344-5.5781-0.84375-0.70312-1.6406-1.4531-2.5312-2.2031-2.0625-2.0625-2.0625-2.0625-3.2344-5.6719-0.79688-0.375-1.5469-0.79688-2.3906-1.1719-2.4375-1.2188-2.4375-1.2188-3.6094-4.8281-1.5469-0.89062-3.1875-1.6406-4.8281-2.3906-1.7812-1.5469-1.7812-1.5469-3.5625-3.2812-0.65625-0.70312-1.3594-1.4062-2.0625-2.0625-0.65625-0.70312-1.4062-1.4531-2.1094-2.2031-1.125-1.0781-1.125-1.0781-2.2969-2.25-1.5938-1.5469-3.1406-3.1406-4.6875-4.7344l-7.2188-7.2188c-21.234-21.281-21.234-21.281-21.234-25.031-1.1719-0.46875-2.3906-0.84375-3.6094-1.2188-1.6875-1.7344-1.6875-1.7344-3.5156-3.9844-4.5469-5.3906-9.5156-10.312-14.578-15.188-1.5938-1.5469-3.1875-3.1875-4.6875-4.8281v-2.4375h-2.4375c-3-3-4.5938-5.25-5.625-9.4219 1.0781-4.875 3.2812-6.6094 6.8906-9.9375 2.2969-2.2031 4.3125-4.4531 6.3281-6.8906 4.1719-4.7812 8.8125-8.8594 13.547-13.031 3.4219-3.1875 6.4219-6.5625 9.4219-10.125 2.5312-2.9062 5.1562-5.5312 7.875-8.1562 1.5938-1.6875 1.5938-1.6875 3.1406-3.2812 2.8594-2.7188 2.8594-2.7188 6.4219-3.9375v-2.3906h2.4375c0.375-1.1719 0.75-2.3906 1.2188-3.6094 2.0625-2.1562 2.0625-2.1562 4.5938-4.3125 0.89062-0.75 1.6875-1.5 2.5781-2.25 2.3906-1.8281 2.3906-1.8281 6-3 0.375-1.2188 0.79688-2.3906 1.1719-3.6562 1.6875-1.6875 1.6875-1.6875 3.9375-3.4688 3.75-3.2812 7.4531-6.5625 11.062-9.9375 12.094-11.344 24.562-21.703 39-29.766 1.0781-0.70312 1.0781-0.70312 2.1562-1.3125 15.75-9.7031 32.719-11.109 50.672-11.109z" fill="#70d258"/>
 <path d="m406.55 480.42h2.8125c20.156 0.14062 39.562 2.9062 56.25 15.188 1.0312 0.70312 2.0625 1.4062 3.1406 2.1562 10.688 7.3125 10.688 7.3125 14.859 11.062v2.3438c1.0312 0.51562 1.0312 0.51562 2.0625 0.9375 2.9531 1.6406 5.25 3.4688 7.7812 5.625 0.79688 0.70312 1.5938 1.4531 2.4844 2.1562 2.0625 2.1094 2.0625 2.1094 3.2344 5.7188 0.84375 0.375 1.6406 0.75 2.4375 1.2188 0.75 0.375 1.5938 0.75 2.3906 1.1719 0.375 1.1719 0.79688 2.3906 1.1719 3.6094 1.5938 0.84375 3.1875 1.6406 4.8281 2.3906 1.8281 1.5469 1.8281 1.5469 3.6094 3.3281 0.65625 0.65625 1.3125 1.3125 2.0156 1.9688l2.2031 2.2031c0.75 0.75 1.4062 1.5 2.25 2.25 1.5469 1.6406 3.0938 3.1875 4.6875 4.7344 2.3438 2.4375 4.7812 4.8281 7.1719 7.2188 14.625 14.672 14.625 14.672 21.234 22.688 0.65625 0.79688 1.2656 1.5469 1.9688 2.2969 0.5625 0.70312 1.125 1.3594 1.6875 2.0625 2.3438 2.8125 4.875 5.25 7.6875 7.5469 6.0938 5.0625 11.812 10.828 15.094 18.094h2.3906c6 6 6 6 6.0469 10.312-2.8594 6.5625-7.9219 10.688-13.312 15.234-2.9062 2.5781-5.625 5.2969-8.3438 8.0625-6 6-6 6-9 8.9531-3.0938 3.0469-3.0938 3.0469-5.8125 6.5625-2.8125 3.4688-6.0938 6.2344-9.5156 9.0469-2.0625 1.8281-3.75 3.75-5.4375 5.8594-0.89062 1.0781-1.7344 2.0625-2.625 3.1875h-2.3906c-0.42188 1.2188-0.79688 2.3906-1.2188 3.5625-1.5938 1.6406-1.5938 1.6406-3.75 3.375-5.0156 4.3125-9.8906 8.7656-14.719 13.312-39.797 37.266-39.797 37.266-61.922 45.75-0.75 0.32812-1.5469 0.65625-2.3906 0.9375-12.469 5.1562-24.984 5.5312-38.297 5.5781-2.9531 0-5.8594 0.046875-8.8594 0.14062-11.531 0.09375-20.531-1.0312-30.844-6.6562-0.79688-0.42188-1.5938-0.84375-2.4375-1.2188-1.7812-1.0312-3.6094-2.1562-5.4375-3.1875-1.7344-1.0781-1.7344-1.0781-3.5625-2.1562-2.1562-1.3594-4.4062-2.8125-6.5625-4.2188v-2.4375c-0.75-0.28125-1.4062-0.5625-2.1094-0.89062-3.0469-1.6875-4.8281-3.5625-7.0781-6.2344-0.65625-0.84375-1.3594-1.6406-2.1094-2.5312-4.3125-5.2969-4.3125-5.2969-4.3125-9.5625h-2.3906c-5.1094-12.047-8.5312-22.688-8.4375-36v-3.2812c0.84375-17.062 7.875-30.328 18-43.5 0.70312-0.9375 1.3125-1.875 2.0156-2.8125 0.79688-1.0312 0.79688-1.0312 1.6406-1.9688h2.3438v-7.2188c-1.7344-0.5625-1.7344-0.5625-3.5625-1.2188-3.1875-4.1719-5.7188-8.6719-8.4375-13.172-0.5625-0.89062-1.125-1.8281-1.7344-2.7656-6.3281-10.219-8.2969-22.5-9.0469-34.406-0.09375-0.89062-0.14062-1.7812-0.1875-2.625-0.9375-17.812 5.7188-36.562 16.969-50.203 0.65625-0.9375 1.3125-1.8281 1.9688-2.7656 0.5625-0.65625 1.125-1.3594 1.6875-2.0625h2.3438c0.32812-0.75 0.65625-1.5 0.9375-2.25 1.7812-3.0469 3.1406-3.4219 6.2812-4.9219 0.75-0.75 1.4062-1.5 2.1562-2.25 2.8125-2.6719 5.3906-4.3125 8.8125-6.1406 1.0312-0.60938 2.0625-1.1719 3.1406-1.7344 1.3125-0.60938 2.5781-1.2656 3.8906-1.875 0.79688-0.42188 1.5938-0.79688 2.4375-1.2656 9.6094-4.5469 19.359-4.3594 29.719-4.3125z" fill="#70d258"/>
 <path d="m606.89 628.5c0.9375 0.14062 1.7812 0.1875 2.7188 0.32812v2.3438h2.3906v2.4375c1.1719 0.375 2.3906 0.75 3.6094 1.2188v2.3438c1.2188 0.46875 2.3906 0.84375 3.5625 1.2188v2.4375c1.2188 0.375 2.3906 0.75 3.6562 1.1719v2.3906c0.65625 0.28125 1.3594 0.60938 2.0625 0.9375 3.0938 1.6875 5.1562 3.6094 7.5 6.2812v2.3906c1.1719 0.375 2.3438 0.79688 3.6094 1.1719 1.8281 1.9688 1.8281 1.9688 3.7031 4.2188 2.4844 3.2344 2.4844 3.2344 5.9062 5.4375v2.3438c1.2188 0.46875 2.3906 0.84375 3.5625 1.2188v2.4375c0.65625 0.23438 1.3125 0.46875 1.9688 0.75 4.125 2.3438 7.125 5.625 10.406 9 0.70312 0.65625 1.4531 1.3594 2.1562 2.1094 4.1719 4.2656 8.1562 8.625 12.047 13.125 3 3.4219 6.1406 6.7969 9.2344 10.172 0.9375 1.0312 0.9375 1.0312 1.875 2.0156 2.9062 3.1406 5.8125 6.2344 8.7188 9.375 25.5 27.516 40.406 54.328 40.922 92.203 0.046875 1.3594 0.046875 1.3594 0.046875 2.8125 0.46875 18.188-4.5469 33.188-15.375 48h-2.3438c-0.32812 0.84375-0.5625 1.7344-0.89062 2.625-5.1094 11.156-18.141 18.375-29.109 22.594-19.875 6.75-38.25 5.5312-57.656-2.4375-9.0469-4.5938-16.594-10.969-24-18-4.3125 2.7656-8.2969 5.7188-12.281 8.9531-15.844 12.234-37.781 17.062-57.656 14.766-21.562-3.3281-38.906-13.594-52.406-30.891-3-4.3125-5.7656-8.6719-8.4375-13.172-0.51562-0.89062-0.9375-1.6875-1.5-2.5781-5.5312-10.078-6.1406-21.047-6.0938-32.297v-3.6562c0.375-21.188 5.625-37.922 16.031-56.297 0.5625-1.1719 0.5625-1.1719 1.1719-2.3906h2.3906c0.375-0.9375 0.75-1.875 1.125-2.8594 1.3125-3.1406 1.3125-3.1406 2.4844-5.5781h2.3906c0.28125-0.60938 0.5625-1.3125 0.84375-1.9688 1.9688-3.4688 4.3125-6.0938 7.0312-8.9531 3.6562-3.7969 3.6562-3.7969 6.5625-8.25h2.3438v-2.3906h3.6562v-3.6094h2.3438v-2.3906c2.7188-3 5.0156-5.5312 8.625-7.3125 2.8125-1.4062 3.2812-3.0938 4.5938-5.9062 1.1719-0.375 2.3438-0.75 3.6094-1.2188 0.375-0.75 0.75-1.5 1.125-2.2969 1.5469-3.0469 3.0469-3.375 6.0469-4.875 0.84375-1.5469 1.6406-3.1875 2.4375-4.8281 1.2188-0.375 2.3906-0.75 3.5625-1.1719 0.5625-1.125 0.5625-1.125 1.125-2.2969 1.6406-3.0938 3.0938-3.375 6.0938-4.875 0.5625-1.125 0.5625-1.125 1.0312-2.25 1.6875-3.1875 3.6562-4.5938 6.5625-6.7031 3.2812-2.4375 6.3281-4.8281 9.1406-7.8281 0.79688-0.79688 1.6406-1.5938 2.4844-2.4375h2.3906c0.42188-1.0312 0.42188-1.0312 0.9375-2.1094 1.5469-2.9531 3.3281-4.875 5.6719-7.1719 0.70312-0.75 1.4531-1.5 2.2031-2.25 2.0156-1.6875 2.0156-1.6875 4.3594-1.6875 0.28125-0.65625 0.51562-1.3125 0.75-2.0156 1.875-3.1406 4.2188-5.0625 7.0781-7.3125 2.0156-1.5469 2.0156-1.5469 4.2656-4.2656 2.3438-1.9688 2.3438-1.9688 5.625-2.2969z" fill="#70d258"/>
 <path d="m584.39 349.18v2.4375c0.9375 0.32812 1.875 0.70312 2.8125 1.0312 3.1875 1.3594 3.1875 1.3594 6.7969 3.75v2.4375c0.9375 0.28125 1.8281 0.60938 2.7656 0.9375 3.0938 1.3594 4.6875 2.5312 6.8438 5.0625 4.7812-1.6875 8.25-3.9375 12.281-7.0312 18.422-13.547 38.484-18.422 61.359-15.422 15.938 3.1875 31.641 10.359 42.75 22.453v2.3438c1.1719 0.46875 2.3906 0.84375 3.6094 1.2188 2.0625 2.6719 3.9375 5.2969 5.8125 8.1094 0.51562 0.75 1.0312 1.4531 1.5938 2.2031 9.1875 13.734 11.625 27.188 11.344 43.312-0.046875 0.9375-0.046875 1.7812-0.046875 2.7188-0.14062 13.969-1.3594 26.719-6.7031 39.656-0.46875 1.1719-0.98438 2.3438-1.4062 3.5625-6.1875 13.406-16.125 24.375-25.828 35.344-1.4531 1.7812-2.8594 3.5625-4.2656 5.3906-1.0312 1.2656-1.0312 1.2656-2.1094 2.4844h-2.3906v2.4375h-2.4375v2.3906h-2.3438c-0.32812 0.70312-0.65625 1.4531-1.0312 2.1094-1.4062 2.7188-2.8594 4.4531-5.0625 6.6562l-4.5938 4.5938c-0.89062 0.84375-1.6875 1.6406-2.5312 2.5312-1.7344 1.7344-3.4688 3.4688-5.2969 5.25-2.625 2.625-5.2969 5.25-7.9219 7.9219-1.6875 1.6875-3.4688 3.375-5.1562 5.0625-0.75 0.79688-1.5469 1.5469-2.3438 2.3906-5.3438 5.25-10.828 10.219-16.5 15.094-6.6562 5.8125-13.078 11.812-19.266 18.094-6 5.9062-12.609 11.297-19.125 16.688-5.0625-2.2031-7.3594-3.375-9.6094-8.3906-0.65625-0.32812-1.3125-0.60938-2.0625-0.9375-3.7031-2.0156-6.3281-4.8281-9.2812-7.8281-0.79688-0.84375-0.79688-0.84375-1.6875-1.7344-1.5938-1.6875-3.2812-3.375-4.9688-5.1094l-6-6c-0.89062-0.89062-1.7812-1.7812-2.625-2.7188-2.9062-2.8125-5.7656-5.6719-8.7188-8.4844-1.9219-1.9219-3.8438-3.8906-5.8125-5.8125-0.98438-0.98438-2.0625-1.9219-3.0469-3-0.9375-0.9375-1.875-1.875-2.8594-2.8125-0.89062-0.89062-1.7812-1.7344-2.625-2.625-1.875-2.1094-1.875-2.1094-1.875-4.5469h-2.4375v-2.3906c-1.2188-0.375-2.3906-0.79688-3.5625-1.1719-2.25-2.5781-2.25-2.5781-4.6875-5.7188-3.4688-4.4062-6.8906-8.4844-10.969-12.281-2.4375-2.3906-4.7812-4.7812-7.1719-7.2188v-2.4375h-2.3906c-1.9219-2.0625-3.7969-4.2188-5.5312-6.4219-1.0312-1.1719-2.0156-2.3906-3-3.6094-2.25-3.1406-2.25-3.1406-2.25-5.5312-1.2188-0.42188-2.3906-0.79688-3.6562-1.2188-1.6875-2.3438-3.2344-4.7812-4.7812-7.2188-0.75-1.1719-1.5-2.2969-2.3438-3.5625-12.234-19.125-16.125-36.984-16.031-59.438 0-3.0469 0-6.0938-0.09375-9.1875-0.046875-19.125-0.046875-19.125 4.0781-27.375 0.5625-1.2188 1.1719-2.4375 1.7344-3.75 12.281-20.906 27.328-35.344 51.094-41.859 17.719-3.4219 35.25 0 51.562 7.1719z" fill="#70d258"/>
</svg>
